<svg xmlns="http://www.w3.org/2000/svg" version="1.1" xmlns:xlink="http://www.w3.org/1999/xlink" xmlns:svgjs="http://svgjs.dev/svgjs" width="2000" height="469" viewBox="0 0 2000 469"><g transform="matrix(1,0,0,1,-1.2121212121212466,-0.8532075188288104)"><svg viewBox="0 0 396 93" data-background-color="#ffffff" preserveAspectRatio="xMidYMid meet" height="469" width="2000" xmlns="http://www.w3.org/2000/svg" xmlns:xlink="http://www.w3.org/1999/xlink"><g id="tight-bounds" transform="matrix(1,0,0,1,0.2400000000000091,0.16918613912810088)"><svg viewBox="0 0 395.52 92.66162772174383" height="92.66162772174383" width="395.52"><g><svg viewBox="0 0 395.52 92.66162772174383" height="92.66162772174383" width="395.52"><g><svg viewBox="0 0 395.52 92.66162772174383" height="92.66162772174383" width="395.52"><g id="textblocktransform"><svg viewBox="0 0 395.52 92.66162772174383" height="92.66162772174383" width="395.52" id="textblock"><g><rect width="106.79039999999999" height="5.813307641745439" y="83.26452279265729" fill="#ffffff" data-fill-palette-color="tertiary"></rect><rect width="106.79039999999999" height="5.813307641745439" y="83.26452279265729" x="288.7296" fill="#ffffff" data-fill-palette-color="tertiary"></rect></g><g><svg viewBox="0 0 395.52 64.46264267352184" height="64.46264267352184" width="395.52"><g transform="matrix(1,0,0,1,0,0)"><svg width="395.52" viewBox="0.02 -38.23 237.41 38.69" height="64.46264267352184" data-palette-color="#000000"><path d="M29.39-33.91L29.39-33.91Q29.39-32.79 27.03-32.79L27.03-32.79 21.36-32.79 21.36 0 8.86 0 8.86-32.79 5.2-32.79Q3.32-32.79 2.61-32.62L2.61-32.62Q1.68-32.42 1.27-32.42L1.27-32.42Q0.02-32.42 0.02-33.4L0.02-33.4Q0.02-34.55 2.44-34.55L2.44-34.55 24.22-34.55Q25.9-34.55 26.71-34.69L26.71-34.69Q27.69-34.86 28.17-34.86L28.17-34.86Q29.39-34.86 29.39-33.91ZM32.22-13.18L32.22-13.18Q32.22-16.11 33.29-18.52 34.35-20.92 36.2-22.71L36.2-22.71Q40.21-26.51 46.26-26.51L46.26-26.51Q52.44-26.51 56.32-22.56L56.32-22.56Q60.03-18.82 60.03-13.11L60.03-13.11Q60.03-7.37 56.22-3.52L56.22-3.52Q52.29 0.46 46.16 0.46L46.16 0.46Q40.18 0.46 36.25-3.32L36.25-3.32Q32.22-7.23 32.22-13.18ZM45.48-24.71L45.48-1.37Q45.68-1.34 45.87-1.34L45.87-1.34 46.21-1.34Q51.14-1.34 54.49-4.39L54.49-4.39Q58.05-7.69 58.05-13.04L58.05-13.04Q58.05-18.26 54.71-21.51L54.71-21.51Q51.41-24.73 46.19-24.73L46.19-24.73 45.82-24.73Q45.65-24.73 45.48-24.71L45.48-24.71ZM66.38 0L66.38-34.55 76.53-34.55Q83.64-34.55 86.96-33.54L86.96-33.54Q90.74-32.37 92.81-30.54 94.87-28.71 96.04-26.76L96.04-26.76Q98.43-22.78 98.43-17.72L98.43-17.72Q98.43-9.77 92.72-4.83L92.72-4.83Q88.67-1.29 83.17-0.46L83.17-0.46Q80.12 0 74.63 0L74.63 0 66.38 0ZM78.83-32.69L78.83-2.03Q79.22-2 79.54-2L79.54-2 80.1-2Q86.71-2 91.4-6.13L91.4-6.13Q96.36-10.47 96.36-17.68L96.36-17.68Q96.36-22.22 94.18-25.85L94.18-25.85Q91.04-31.15 84.22-32.28L84.22-32.28Q82-32.64 78.83-32.69L78.83-32.69ZM102.56-13.18L102.56-13.18Q102.56-16.11 103.62-18.52 104.68-20.92 106.54-22.71L106.54-22.71Q110.54-26.51 116.59-26.51L116.59-26.51Q122.77-26.51 126.65-22.56L126.65-22.56Q130.36-18.82 130.36-13.11L130.36-13.11Q130.36-7.37 126.56-3.52L126.56-3.52Q122.62 0.46 116.5 0.46L116.5 0.46Q110.51 0.46 106.58-3.32L106.58-3.32Q102.56-7.23 102.56-13.18ZM115.81-24.71L115.81-1.37Q116.01-1.34 116.2-1.34L116.2-1.34 116.55-1.34Q121.48-1.34 124.82-4.39L124.82-4.39Q128.39-7.69 128.39-13.04L128.39-13.04Q128.39-18.26 125.04-21.51L125.04-21.51Q121.75-24.73 116.52-24.73L116.52-24.73 116.15-24.73Q115.98-24.73 115.81-24.71L115.81-24.71ZM168.76-2.22L168.76-2.22Q170.06-2.22 170.06-1.12L170.06-1.12Q170.06-0.68 169.53-0.34 169.01 0 167.66 0L167.66 0 147.84 0 147.84-34.55 160.29-34.55 160.29-1.61 164.86-1.61Q166.39-1.61 167.5-1.92 168.62-2.22 168.76-2.22ZM179.75-30.35Q177.23-30.35 175.82-31.47 174.4-32.59 174.4-34.42L174.4-34.42Q174.4-35.96 175.96-37.06L175.96-37.06Q177.62-38.23 179.48-38.23 181.33-38.23 182.35-37.87 183.36-37.5 184.07-36.91L184.07-36.91Q185.48-35.72 185.48-34.13L185.48-34.13Q185.48-32.54 183.87-31.45L183.87-31.45Q182.26-30.35 179.75-30.35ZM174.62 0L174.62-26.07 185.12-26.07 185.12 0 174.62 0ZM191.19-3.27L191.19-3.27Q191.19-3.64 191.45-3.94 191.71-4.25 192.12-4.25 192.54-4.25 192.8-4L192.8-4Q192.8-4 193.42-3.44L193.42-3.44Q195.95-1.22 200.52-1.22L200.52-1.22Q203.6-1.22 204.47-2.49L204.47-2.49Q204.72-2.83 204.72-3.19 204.72-3.54 204.58-3.87 204.45-4.2 204.01-4.68 203.57-5.15 202.77-5.81L202.77-5.81 200.62-7.54Q195.3-11.69 193.32-14.28L193.32-14.28Q191.51-16.65 191.51-19.12L191.51-19.12Q191.51-22.22 194.37-24.32L194.37-24.32Q197.32-26.51 202.01-26.51L202.01-26.51Q205.3-26.51 207.21-25.76 209.11-25 209.89-24.38 210.68-23.75 210.68-23.24L210.68-23.24Q210.68-22.19 209.85-22.19L209.85-22.19Q209.46-22.19 209.13-22.47 208.8-22.75 207.82-23.43 206.84-24.1 205.23-24.49 203.62-24.88 202.23-24.88 200.84-24.88 200.26-24.44 199.69-24 199.69-23.57 199.69-23.14 199.86-22.77 200.03-22.39 200.5-21.88L200.5-21.88Q201.57-20.61 203.94-18.87 206.31-17.14 207.94-15.7 209.58-14.26 210.5-13.04L210.5-13.04Q212.19-10.84 212.19-8.59 212.19-6.35 211.36-4.75 210.53-3.15 208.99-2L208.99-2Q205.74 0.46 200.32 0.46L200.32 0.46Q195.98 0.46 193.07-1.2L193.07-1.2Q191.19-2.25 191.19-3.27ZM228.11 0.46L228.11 0.46Q218.53 0.46 218.53-8.28L218.53-8.28 218.51-24.29 215.7-24.17Q214.38-24.17 214.38-25.17 214.38-26.17 215.8-26.17L215.8-26.17 218.14-26.07 218.51-26.07 218.51-29.86 228.98-34.55 228.98-26.07 232.26-26.07 234.57-26.17Q236.02-26.17 236.02-25.15L236.02-25.15Q236.02-24.68 235.61-24.43 235.21-24.17 234.7-24.17L234.7-24.17 231.67-24.29 228.98-24.29 228.98-1.34Q231.84-1.39 233.74-2.98L233.74-2.98Q234.65-3.66 235.03-4.74 235.4-5.81 235.71-6.12 236.02-6.42 236.43-6.42L236.43-6.42Q236.85-6.42 237.14-6.09 237.43-5.76 237.43-5.31 237.43-4.86 237.19-4.31 236.94-3.76 236.45-3.15L236.45-3.15Q235.36-1.78 233.92-0.98L233.92-0.98Q231.3 0.46 228.11 0.46Z" opacity="1" transform="matrix(1,0,0,1,0,0)" fill="#ffffff" class="wordmark-text-0" data-fill-palette-color="primary" id="text-0"></path></svg></g></svg></g><g transform="matrix(1,0,0,1,106.79039999999999,79.68072550531619)"><svg viewBox="0 0 181.9392 12.980902216427639" height="12.980902216427639" width="181.9392"><g transform="matrix(1,0,0,1,8,0)"><svg width="165.9392" viewBox="1.4333333333349998 -37 600.7566666666651 47" height="12.980902216427639" data-palette-color="#000000"><path d="M15.5-31.35L16.4-31.15 4.25-0.95Q4.05-0.45 3.7-0.2 3.35 0.05 2.9 0.05L2.9 0.05Q2.2 0.05 1.85-0.33 1.5-0.7 1.45-1.25L1.45-1.25Q1.4-1.5 1.5-1.85L1.5-1.85 14.7-34.15Q14.95-34.7 15.33-34.93 15.7-35.15 16.2-35.15L16.2-35.15Q16.7-35.15 17.07-34.88 17.45-34.6 17.65-34.15L17.65-34.15 30.8-2Q30.9-1.7 30.9-1.4L30.9-1.4Q30.9-0.7 30.45-0.33 30 0.05 29.4 0.05L29.4 0.05Q28.9 0.05 28.53-0.23 28.15-0.5 27.95-0.95L27.95-0.95 15.5-31.35ZM24.5-10.1L7.15-10.1 8.4-13.05 23.9-13.05 24.5-10.1ZM47.35-26.15L47.35-26.15Q49.75-26.15 51.75-25.63 53.75-25.1 54.97-24.2 56.2-23.3 56.2-22.25L56.2-22.25Q56.2-21.75 55.82-21.28 55.45-20.8 54.9-20.8L54.9-20.8Q54.25-20.8 53.87-21.1 53.5-21.4 53.15-21.8 52.8-22.2 52.1-22.55L52.1-22.55Q51.45-22.85 50.22-23.1 49-23.35 47.5-23.35L47.5-23.35Q44.7-23.35 42.45-21.95 40.2-20.55 38.9-18.18 37.6-15.8 37.6-12.85L37.6-12.85Q37.6-9.85 38.82-7.45 40.05-5.05 42.27-3.68 44.5-2.3 47.4-2.3L47.4-2.3Q49.4-2.3 50.52-2.65 51.65-3 52.4-3.45L52.4-3.45Q53.4-4 53.82-4.53 54.25-5.05 54.95-5.05L54.95-5.05Q55.55-5.05 55.9-4.67 56.25-4.3 56.25-3.7L56.25-3.7Q56.25-2.9 55.07-1.93 53.9-0.95 51.85-0.23 49.8 0.5 47.1 0.5L47.1 0.5Q43.4 0.5 40.57-1.25 37.75-3 36.17-6.03 34.6-9.05 34.6-12.85L34.6-12.85Q34.6-16.5 36.2-19.5 37.8-22.5 40.65-24.33 43.5-26.15 47.35-26.15ZM73.05-26.15L73.05-26.15Q75.45-26.15 77.45-25.63 79.45-25.1 80.67-24.2 81.9-23.3 81.9-22.25L81.9-22.25Q81.9-21.75 81.52-21.28 81.15-20.8 80.6-20.8L80.6-20.8Q79.95-20.8 79.57-21.1 79.2-21.4 78.85-21.8 78.5-22.2 77.8-22.55L77.8-22.55Q77.15-22.85 75.92-23.1 74.7-23.35 73.2-23.35L73.2-23.35Q70.4-23.35 68.15-21.95 65.9-20.55 64.6-18.18 63.3-15.8 63.3-12.85L63.3-12.85Q63.3-9.85 64.52-7.45 65.75-5.05 67.97-3.68 70.2-2.3 73.1-2.3L73.1-2.3Q75.1-2.3 76.22-2.65 77.35-3 78.1-3.45L78.1-3.45Q79.1-4 79.52-4.53 79.95-5.05 80.65-5.05L80.65-5.05Q81.25-5.05 81.6-4.67 81.95-4.3 81.95-3.7L81.95-3.7Q81.95-2.9 80.77-1.93 79.6-0.95 77.55-0.23 75.5 0.5 72.8 0.5L72.8 0.5Q69.1 0.5 66.27-1.25 63.45-3 61.87-6.03 60.3-9.05 60.3-12.85L60.3-12.85Q60.3-16.5 61.9-19.5 63.5-22.5 66.35-24.33 69.2-26.15 73.05-26.15ZM90.59-24.5L90.59-1.5Q90.59-0.9 90.14-0.45 89.69 0 89.09 0L89.09 0Q88.44 0 88.02-0.45 87.59-0.9 87.59-1.5L87.59-1.5 87.59-24.5Q87.59-25.1 88.02-25.55 88.44-26 89.09-26L89.09-26Q89.74-26 90.17-25.55 90.59-25.1 90.59-24.5L90.59-24.5ZM89.09-29.35L89.09-29.35Q88.04-29.35 87.52-29.83 86.99-30.3 86.99-31.2L86.99-31.2 86.99-31.7Q86.99-32.6 87.57-33.08 88.14-33.55 89.14-33.55L89.14-33.55Q90.09-33.55 90.62-33.08 91.14-32.6 91.14-31.7L91.14-31.7 91.14-31.2Q91.14-30.3 90.62-29.83 90.09-29.35 89.09-29.35ZM121.99-12.8L121.99-12.8Q121.99-9 120.32-5.98 118.64-2.95 115.79-1.23 112.94 0.5 109.34 0.5L109.34 0.5Q105.79 0.5 102.92-1.23 100.04-2.95 98.37-5.98 96.69-9 96.69-12.8L96.69-12.8Q96.69-16.65 98.37-19.65 100.04-22.65 102.92-24.4 105.79-26.15 109.34-26.15L109.34-26.15Q112.94-26.15 115.79-24.4 118.64-22.65 120.32-19.65 121.99-16.65 121.99-12.8ZM118.99-12.8L118.99-12.8Q118.99-15.85 117.74-18.23 116.49-20.6 114.32-21.98 112.14-23.35 109.34-23.35L109.34-23.35Q106.59-23.35 104.42-21.98 102.24-20.6 100.97-18.23 99.69-15.85 99.69-12.8L99.69-12.8Q99.69-9.75 100.97-7.4 102.24-5.05 104.42-3.68 106.59-2.3 109.34-2.3L109.34-2.3Q112.14-2.3 114.32-3.68 116.49-5.05 117.74-7.4 118.99-9.75 118.99-12.8ZM108.74-27.95L108.74-27.95Q108.49-27.95 108.22-28.23 107.94-28.5 107.94-28.85L107.94-28.85Q107.94-29.15 108.19-29.55L108.19-29.55 111.24-34.3Q111.49-34.7 111.92-35.05 112.34-35.4 112.94-35.4L112.94-35.4Q113.69-35.4 114.14-35 114.59-34.6 114.54-33.85L114.54-33.85Q114.54-33.5 114.42-33.23 114.29-32.95 114.04-32.7L114.04-32.7 110.29-28.75Q109.99-28.4 109.59-28.18 109.19-27.95 108.74-27.95ZM140.19-26.15L140.19-26.15Q143.49-26.15 145.46-24.83 147.44-23.5 148.31-21.23 149.19-18.95 149.19-16.2L149.19-16.2 149.19-1.5Q149.19-0.9 148.74-0.45 148.29 0 147.69 0L147.69 0Q146.99 0 146.59-0.45 146.19-0.9 146.19-1.5L146.19-1.5 146.19-16.05Q146.19-18.05 145.54-19.7 144.89-21.35 143.41-22.35 141.94-23.35 139.54-23.35L139.54-23.35Q137.39-23.35 135.46-22.35 133.54-21.35 132.34-19.7 131.14-18.05 131.14-16.05L131.14-16.05 131.14-1.5Q131.14-0.9 130.69-0.45 130.24 0 129.64 0L129.64 0Q128.94 0 128.54-0.45 128.14-0.9 128.14-1.5L128.14-1.5 128.14-23.9Q128.14-24.5 128.56-24.95 128.99-25.4 129.64-25.4L129.64-25.4Q130.29-25.4 130.71-24.95 131.14-24.5 131.14-23.9L131.14-23.9 131.14-19.7 129.99-17.9Q130.09-19.5 131.01-20.98 131.94-22.45 133.39-23.63 134.84-24.8 136.61-25.48 138.39-26.15 140.19-26.15ZM182.03 0.5L182.03 0.5Q178.18 0.5 175.23-1.15 172.28-2.8 170.63-5.75 168.98-8.7 168.98-12.65L168.98-12.65Q168.98-16.9 170.66-19.9 172.33-22.9 175.01-24.53 177.68-26.15 180.68-26.15L180.68-26.15Q182.88-26.15 184.96-25.38 187.03-24.6 188.63-23.08 190.23-21.55 191.23-19.35 192.23-17.15 192.28-14.25L192.28-14.25Q192.28-13.65 191.83-13.23 191.38-12.8 190.78-12.8L190.78-12.8 170.73-12.8 170.13-15.5 189.83-15.5 189.18-14.9 189.18-15.9Q188.93-18.25 187.63-19.9 186.33-21.55 184.51-22.4 182.68-23.25 180.68-23.25L180.68-23.25Q179.18-23.25 177.61-22.65 176.03-22.05 174.76-20.78 173.48-19.5 172.68-17.53 171.88-15.55 171.88-12.85L171.88-12.85Q171.88-9.9 173.08-7.5 174.28-5.1 176.53-3.7 178.78-2.3 181.98-2.3L181.98-2.3Q183.68-2.3 185.08-2.8 186.48-3.3 187.56-4.13 188.63-4.95 189.33-5.85L189.33-5.85Q189.88-6.3 190.38-6.3L190.38-6.3Q190.93-6.3 191.31-5.9 191.68-5.5 191.68-5L191.68-5Q191.68-4.4 191.18-3.95L191.18-3.95Q189.68-2.15 187.28-0.83 184.88 0.5 182.03 0.5ZM197.03-4.05L197.03-4.05Q196.63-4.65 196.66-5.23 196.68-5.8 197.28-6.15L197.28-6.15Q197.68-6.5 198.21-6.45 198.73-6.4 199.18-5.95L199.18-5.95Q200.53-4.2 202.46-3.13 204.38-2.05 207.03-2.05L207.03-2.05Q208.43-2.05 209.81-2.53 211.18-3 212.08-3.98 212.98-4.95 212.98-6.45L212.98-6.45Q212.98-8 212.08-8.95 211.18-9.9 209.76-10.45 208.33-11 206.73-11.4L206.73-11.4Q205.03-11.85 203.43-12.43 201.83-13 200.61-13.88 199.38-14.75 198.63-16 197.88-17.25 197.88-19.05L197.88-19.05Q197.88-21.15 199.03-22.75 200.18-24.35 202.16-25.25 204.13-26.15 206.63-26.15L206.63-26.15Q207.88-26.15 209.33-25.83 210.78-25.5 212.18-24.75 213.58-24 214.68-22.7L214.68-22.7Q215.13-22.25 215.13-21.68 215.13-21.1 214.63-20.65L214.63-20.65Q214.23-20.35 213.71-20.35 213.18-20.35 212.83-20.75L212.83-20.75Q211.63-22.1 209.98-22.8 208.33-23.5 206.43-23.5L206.43-23.5Q204.98-23.5 203.71-23.03 202.43-22.55 201.58-21.6 200.73-20.65 200.73-19.1L200.73-19.1Q200.83-17.65 201.76-16.75 202.68-15.85 204.21-15.25 205.73-14.65 207.63-14.15L207.63-14.15Q209.23-13.75 210.71-13.2 212.18-12.65 213.31-11.83 214.43-11 215.11-9.75 215.78-8.5 215.78-6.6L215.78-6.6Q215.78-4.4 214.56-2.8 213.33-1.2 211.28-0.35 209.23 0.5 206.73 0.5L206.73 0.5Q204.03 0.5 201.51-0.55 198.98-1.6 197.03-4.05ZM238.48-24.5L238.48-1.5Q238.48-0.9 238.03-0.45 237.58 0 236.98 0L236.98 0Q236.33 0 235.9-0.45 235.48-0.9 235.48-1.5L235.48-1.5 235.48-24.5Q235.48-25.1 235.9-25.55 236.33-26 236.98-26L236.98-26Q237.63-26 238.05-25.55 238.48-25.1 238.48-24.5L238.48-24.5ZM236.98-29.35L236.98-29.35Q235.93-29.35 235.4-29.83 234.88-30.3 234.88-31.2L234.88-31.2 234.88-31.7Q234.88-32.6 235.45-33.08 236.03-33.55 237.03-33.55L237.03-33.55Q237.98-33.55 238.5-33.08 239.03-32.6 239.03-31.7L239.03-31.7 239.03-31.2Q239.03-30.3 238.5-29.83 237.98-29.35 236.98-29.35ZM256.72-26.15L256.72-26.15Q258.92-26.15 260.82-25.38 262.72-24.6 264.15-23.38 265.57-22.15 266.37-20.78 267.17-19.4 267.17-18.15L267.17-18.15 266.37-19.35 266.37-24Q266.37-24.65 266.8-25.1 267.22-25.55 267.87-25.55L267.87-25.55Q268.52-25.55 268.95-25.1 269.37-24.65 269.37-24L269.37-24 269.37-2.35Q269.37 1.65 267.72 4.4 266.07 7.15 263.25 8.58 260.42 10 256.82 10L256.82 10Q255.07 10 253.15 9.55 251.22 9.1 249.85 8.4 248.47 7.7 248.27 6.95L248.27 6.95Q247.92 6.5 247.95 6.08 247.97 5.65 248.37 5.35L248.37 5.35Q248.82 5 249.4 5.28 249.97 5.55 251.07 6L251.07 6Q251.52 6.15 252.4 6.45 253.27 6.75 254.45 6.98 255.62 7.2 256.87 7.2L256.87 7.2Q261.37 7.2 263.87 4.63 266.37 2.05 266.37-2.15L266.37-2.15 266.37-6.95 266.92-6.8Q266.47-5 265.42-3.65 264.37-2.3 262.97-1.38 261.57-0.45 259.97 0.03 258.37 0.5 256.77 0.5L256.77 0.5Q253.32 0.5 250.55-1.25 247.77-3 246.17-6 244.57-9 244.57-12.85L244.57-12.85Q244.57-16.65 246.17-19.68 247.77-22.7 250.52-24.43 253.27-26.15 256.72-26.15ZM257.02-23.35L257.02-23.35Q254.32-23.35 252.15-21.98 249.97-20.6 248.75-18.23 247.52-15.85 247.52-12.85L247.52-12.85Q247.52-9.85 248.75-7.45 249.97-5.05 252.15-3.68 254.32-2.3 257.02-2.3L257.02-2.3Q259.77-2.3 261.92-3.65 264.07-5 265.32-7.38 266.57-9.75 266.57-12.85L266.57-12.85Q266.57-15.95 265.32-18.32 264.07-20.7 261.92-22.03 259.77-23.35 257.02-23.35ZM295.97-25.4L295.97-25.4Q296.62-25.4 297.05-24.95 297.47-24.5 297.47-23.9L297.47-23.9 297.47-9.8Q297.47-4.85 294.67-2.25 291.87 0.35 287.12 0.35L287.12 0.35Q282.42 0.35 279.65-2.25 276.87-4.85 276.87-9.8L276.87-9.8 276.87-23.9Q276.87-24.5 277.3-24.95 277.72-25.4 278.37-25.4L278.37-25.4Q279.02-25.4 279.44-24.95 279.87-24.5 279.87-23.9L279.87-23.9 279.87-9.8Q279.87-6.2 281.8-4.33 283.72-2.45 287.12-2.45L287.12-2.45Q290.57-2.45 292.52-4.33 294.47-6.2 294.47-9.8L294.47-9.8 294.47-23.9Q294.47-24.5 294.87-24.95 295.27-25.4 295.97-25.4ZM326.07-25.55L326.07-25.55Q326.72-25.55 327.14-25.1 327.57-24.65 327.57-24L327.57-24 327.57-1.5Q327.57-0.9 327.12-0.45 326.67 0 326.07 0L326.07 0Q325.37 0 324.97-0.45 324.57-0.9 324.57-1.5L324.57-1.5 324.57-7.45 325.42-7.85Q325.42-6.45 324.64-5 323.87-3.55 322.52-2.3 321.17-1.05 319.34-0.28 317.52 0.5 315.37 0.5L315.37 0.5Q312.02 0.5 309.34-1.25 306.67-3 305.14-6.05 303.62-9.1 303.62-12.9L303.62-12.9Q303.62-16.8 305.17-19.78 306.72-22.75 309.37-24.45 312.02-26.15 315.32-26.15L315.32-26.15Q317.47-26.15 319.34-25.4 321.22-24.65 322.62-23.35 324.02-22.05 324.82-20.38 325.62-18.7 325.62-16.9L325.62-16.9 324.57-17.65 324.57-24Q324.57-24.65 324.97-25.1 325.37-25.55 326.07-25.55ZM315.67-2.3L315.67-2.3Q318.32-2.3 320.37-3.68 322.42-5.05 323.59-7.48 324.77-9.9 324.77-12.9L324.77-12.9Q324.77-15.85 323.59-18.2 322.42-20.55 320.37-21.95 318.32-23.35 315.67-23.35L315.67-23.35Q313.07-23.35 310.99-22 308.92-20.65 307.74-18.3 306.57-15.95 306.57-12.9L306.57-12.9Q306.57-9.9 307.72-7.48 308.87-5.05 310.94-3.68 313.02-2.3 315.67-2.3ZM338.72-35.5L338.72-1.5Q338.72-0.9 338.27-0.45 337.82 0 337.22 0L337.22 0Q336.57 0 336.14-0.45 335.72-0.9 335.72-1.5L335.72-1.5 335.72-35.5Q335.72-36.1 336.17-36.55 336.62-37 337.22-37L337.22-37Q337.87-37 338.29-36.55 338.72-36.1 338.72-35.5L338.72-35.5ZM381.31-25.55L381.31-25.55Q381.96-25.55 382.38-25.1 382.81-24.65 382.81-24L382.81-24 382.81-1.5Q382.81-0.9 382.36-0.45 381.91 0 381.31 0L381.31 0Q380.61 0 380.21-0.45 379.81-0.9 379.81-1.5L379.81-1.5 379.81-7.45 380.66-7.85Q380.66-6.45 379.88-5 379.11-3.55 377.76-2.3 376.41-1.05 374.59-0.28 372.76 0.5 370.61 0.5L370.61 0.5Q367.26 0.5 364.59-1.25 361.91-3 360.38-6.05 358.86-9.1 358.86-12.9L358.86-12.9Q358.86-16.8 360.41-19.78 361.96-22.75 364.61-24.45 367.26-26.15 370.56-26.15L370.56-26.15Q372.71-26.15 374.59-25.4 376.46-24.65 377.86-23.35 379.26-22.05 380.06-20.38 380.86-18.7 380.86-16.9L380.86-16.9 379.81-17.65 379.81-24Q379.81-24.65 380.21-25.1 380.61-25.55 381.31-25.55ZM370.91-2.3L370.91-2.3Q373.56-2.3 375.61-3.68 377.66-5.05 378.84-7.48 380.01-9.9 380.01-12.9L380.01-12.9Q380.01-15.85 378.84-18.2 377.66-20.55 375.61-21.95 373.56-23.35 370.91-23.35L370.91-23.35Q368.31-23.35 366.24-22 364.16-20.65 362.99-18.3 361.81-15.95 361.81-12.9L361.81-12.9Q361.81-9.9 362.96-7.48 364.11-5.05 366.19-3.68 368.26-2.3 370.91-2.3ZM415.36-26.15L415.36-26.15Q417.75-26.15 419.75-25.63 421.75-25.1 422.98-24.2 424.21-23.3 424.21-22.25L424.21-22.25Q424.21-21.75 423.83-21.28 423.46-20.8 422.91-20.8L422.91-20.8Q422.25-20.8 421.88-21.1 421.5-21.4 421.16-21.8 420.81-22.2 420.11-22.55L420.11-22.55Q419.46-22.85 418.23-23.1 417-23.35 415.5-23.35L415.5-23.35Q412.71-23.35 410.46-21.95 408.21-20.55 406.91-18.18 405.61-15.8 405.61-12.85L405.61-12.85Q405.61-9.85 406.83-7.45 408.06-5.05 410.28-3.68 412.5-2.3 415.41-2.3L415.41-2.3Q417.41-2.3 418.53-2.65 419.66-3 420.41-3.45L420.41-3.45Q421.41-4 421.83-4.53 422.25-5.05 422.96-5.05L422.96-5.05Q423.56-5.05 423.91-4.67 424.25-4.3 424.25-3.7L424.25-3.7Q424.25-2.9 423.08-1.93 421.91-0.95 419.86-0.23 417.81 0.5 415.11 0.5L415.11 0.5Q411.41 0.5 408.58-1.25 405.75-3 404.18-6.03 402.61-9.05 402.61-12.85L402.61-12.85Q402.61-16.5 404.21-19.5 405.81-22.5 408.66-24.33 411.5-26.15 415.36-26.15ZM450.75-25.55L450.75-25.55Q451.4-25.55 451.83-25.1 452.25-24.65 452.25-24L452.25-24 452.25-1.5Q452.25-0.9 451.8-0.45 451.35 0 450.75 0L450.75 0Q450.05 0 449.65-0.45 449.25-0.9 449.25-1.5L449.25-1.5 449.25-7.45 450.1-7.85Q450.1-6.45 449.33-5 448.55-3.55 447.2-2.3 445.85-1.05 444.03-0.28 442.2 0.5 440.05 0.5L440.05 0.5Q436.7 0.5 434.03-1.25 431.35-3 429.83-6.05 428.3-9.1 428.3-12.9L428.3-12.9Q428.3-16.8 429.85-19.78 431.4-22.75 434.05-24.45 436.7-26.15 440-26.15L440-26.15Q442.15-26.15 444.03-25.4 445.9-24.65 447.3-23.35 448.7-22.05 449.5-20.38 450.3-18.7 450.3-16.9L450.3-16.9 449.25-17.65 449.25-24Q449.25-24.65 449.65-25.1 450.05-25.55 450.75-25.55ZM440.35-2.3L440.35-2.3Q443-2.3 445.05-3.68 447.1-5.05 448.28-7.48 449.45-9.9 449.45-12.9L449.45-12.9Q449.45-15.85 448.28-18.2 447.1-20.55 445.05-21.95 443-23.35 440.35-23.35L440.35-23.35Q437.75-23.35 435.68-22 433.6-20.65 432.43-18.3 431.25-15.95 431.25-12.9L431.25-12.9Q431.25-9.9 432.4-7.48 433.55-5.05 435.63-3.68 437.7-2.3 440.35-2.3ZM471.6-25.75L471.6-25.75Q474.7-25.75 476.9-24.13 479.1-22.5 479.9-19.3L479.9-19.3 479.2-19.1 479.5-20Q480.15-21.5 481.68-22.83 483.2-24.15 485.15-24.95 487.1-25.75 489.1-25.75L489.1-25.75Q492.25-25.75 494.18-24.4 496.1-23.05 496.98-20.78 497.85-18.5 497.85-15.65L497.85-15.65 497.85-1.5Q497.85-0.9 497.43-0.45 497 0 496.35 0L496.35 0Q495.7 0 495.28-0.45 494.85-0.9 494.85-1.5L494.85-1.5 494.85-15.5Q494.85-17.55 494.2-19.25 493.55-20.95 492.15-21.95 490.75-22.95 488.4-22.95L488.4-22.95Q486.35-22.95 484.48-21.95 482.6-20.95 481.43-19.25 480.25-17.55 480.25-15.5L480.25-15.5 480.25-1.5Q480.25-0.9 479.83-0.45 479.4 0 478.75 0L478.75 0Q478.1 0 477.68-0.45 477.25-0.9 477.25-1.5L477.25-1.5 477.25-15.65Q477.25-17.7 476.65-19.35 476.05-21 474.7-21.98 473.35-22.95 471.05-22.95L471.05-22.95Q469-22.95 467.18-21.98 465.35-21 464.23-19.35 463.1-17.7 463.1-15.65L463.1-15.65 463.1-1.5Q463.1-0.9 462.65-0.45 462.2 0 461.6 0L461.6 0Q460.9 0 460.5-0.45 460.1-0.9 460.1-1.5L460.1-1.5 460.1-23.9Q460.1-24.5 460.53-24.95 460.95-25.4 461.6-25.4L461.6-25.4Q462.25-25.4 462.68-24.95 463.1-24.5 463.1-23.9L463.1-23.9 463.1-19.25 461.75-17.4Q461.9-18.9 462.73-20.4 463.55-21.9 464.9-23.1 466.25-24.3 467.98-25.03 469.7-25.75 471.6-25.75ZM517.85-26.15L517.85-26.15Q521.25-26.15 523.87-24.45 526.5-22.75 528.05-19.78 529.6-16.8 529.6-12.9L529.6-12.9Q529.6-9.1 528.05-6.05 526.5-3 523.85-1.25 521.2 0.5 517.9 0.5L517.9 0.5Q516.15 0.5 514.57-0.05 513-0.6 511.7-1.53 510.4-2.45 509.4-3.7 508.4-4.95 507.8-6.4L507.8-6.4 508.7-7.05 508.7-1.4Q508.7-0.75 508.27-0.33 507.85 0.1 507.2 0.1L507.2 0.1Q506.55 0.1 506.12-0.33 505.7-0.75 505.7-1.4L505.7-1.4 505.7-35.45Q505.7-36.1 506.1-36.52 506.5-36.95 507.2-36.95L507.2-36.95Q507.85-36.95 508.27-36.52 508.7-36.1 508.7-35.45L508.7-35.45 508.7-18.7 508-19.1Q508.5-20.65 509.47-21.93 510.45-23.2 511.75-24.15 513.05-25.1 514.6-25.63 516.15-26.15 517.85-26.15ZM517.6-23.35L517.6-23.35Q514.9-23.35 512.85-22 510.8-20.65 509.62-18.3 508.45-15.95 508.45-12.9L508.45-12.9Q508.45-9.9 509.62-7.48 510.8-5.05 512.85-3.68 514.9-2.3 517.6-2.3L517.6-2.3Q520.25-2.3 522.27-3.7 524.3-5.1 525.5-7.53 526.7-9.95 526.7-12.9L526.7-12.9Q526.7-15.95 525.5-18.3 524.3-20.65 522.27-22 520.25-23.35 517.6-23.35ZM538.7-24.5L538.7-1.5Q538.7-0.9 538.25-0.45 537.8 0 537.2 0L537.2 0Q536.55 0 536.12-0.45 535.7-0.9 535.7-1.5L535.7-1.5 535.7-24.5Q535.7-25.1 536.12-25.55 536.55-26 537.2-26L537.2-26Q537.85-26 538.27-25.55 538.7-25.1 538.7-24.5L538.7-24.5ZM537.2-29.35L537.2-29.35Q536.14-29.35 535.62-29.83 535.1-30.3 535.1-31.2L535.1-31.2 535.1-31.7Q535.1-32.6 535.67-33.08 536.25-33.55 537.25-33.55L537.25-33.55Q538.2-33.55 538.72-33.08 539.25-32.6 539.25-31.7L539.25-31.7 539.25-31.2Q539.25-30.3 538.72-29.83 538.2-29.35 537.2-29.35ZM570.09-12.8L570.09-12.8Q570.09-9 568.42-5.98 566.74-2.95 563.89-1.23 561.04 0.5 557.44 0.5L557.44 0.5Q553.89 0.5 551.02-1.23 548.14-2.95 546.47-5.98 544.79-9 544.79-12.8L544.79-12.8Q544.79-16.65 546.47-19.65 548.14-22.65 551.02-24.4 553.89-26.15 557.44-26.15L557.44-26.15Q561.04-26.15 563.89-24.4 566.74-22.65 568.42-19.65 570.09-16.65 570.09-12.8ZM567.09-12.8L567.09-12.8Q567.09-15.85 565.84-18.23 564.59-20.6 562.42-21.98 560.24-23.35 557.44-23.35L557.44-23.35Q554.69-23.35 552.52-21.98 550.34-20.6 549.07-18.23 547.79-15.85 547.79-12.8L547.79-12.8Q547.79-9.75 549.07-7.4 550.34-5.05 552.52-3.68 554.69-2.3 557.44-2.3L557.44-2.3Q560.24-2.3 562.42-3.68 564.59-5.05 565.84-7.4 567.09-9.75 567.09-12.8ZM574.79-4.05L574.79-4.05Q574.39-4.65 574.41-5.23 574.44-5.8 575.04-6.15L575.04-6.15Q575.44-6.5 575.96-6.45 576.49-6.4 576.94-5.95L576.94-5.95Q578.29-4.2 580.21-3.13 582.14-2.05 584.79-2.05L584.79-2.05Q586.19-2.05 587.56-2.53 588.94-3 589.84-3.98 590.74-4.95 590.74-6.45L590.74-6.45Q590.74-8 589.84-8.95 588.94-9.9 587.51-10.45 586.09-11 584.49-11.4L584.49-11.4Q582.79-11.85 581.19-12.43 579.59-13 578.37-13.88 577.14-14.75 576.39-16 575.64-17.25 575.64-19.05L575.64-19.05Q575.64-21.15 576.79-22.75 577.94-24.35 579.91-25.25 581.89-26.15 584.39-26.15L584.39-26.15Q585.64-26.15 587.09-25.83 588.54-25.5 589.94-24.75 591.34-24 592.44-22.7L592.44-22.7Q592.89-22.25 592.89-21.68 592.89-21.1 592.39-20.65L592.39-20.65Q591.99-20.35 591.46-20.35 590.94-20.35 590.59-20.75L590.59-20.75Q589.39-22.1 587.74-22.8 586.09-23.5 584.19-23.5L584.19-23.5Q582.74-23.5 581.46-23.03 580.19-22.55 579.34-21.6 578.49-20.65 578.49-19.1L578.49-19.1Q578.59-17.65 579.51-16.75 580.44-15.85 581.96-15.25 583.49-14.65 585.39-14.15L585.39-14.15Q586.99-13.75 588.46-13.2 589.94-12.65 591.06-11.83 592.19-11 592.87-9.75 593.54-8.5 593.54-6.6L593.54-6.6Q593.54-4.4 592.31-2.8 591.09-1.2 589.04-0.35 586.99 0.5 584.49 0.5L584.49 0.5Q581.79 0.5 579.26-0.55 576.74-1.6 574.79-4.05ZM600.44 0L600.09 0Q599.24 0 598.79-0.55 598.34-1.1 598.34-1.95L598.34-1.95 598.34-3Q598.34-3.9 598.79-4.4 599.24-4.9 600.09-4.9L600.09-4.9 600.44-4.9Q601.29-4.9 601.74-4.4 602.19-3.9 602.19-3L602.19-3 602.19-1.95Q602.19-1.1 601.74-0.55 601.29 0 600.44 0L600.44 0Z" opacity="1" transform="matrix(1,0,0,1,0,0)" fill="#ffffff" class="slogan-text-1" data-fill-palette-color="secondary" id="text-1"></path></svg></g></svg></g></svg></g></svg></g></svg></g><defs></defs></svg><rect width="395.52" height="92.66162772174383" fill="none" stroke="none" visibility="hidden"></rect></g></svg></g></svg>